<?xml version="1.0" encoding="UTF-8"?>
<svg id="uuid-b7e63812-888f-455c-a446-4685bc8ccba5" data-name="Layer 1" xmlns="http://www.w3.org/2000/svg" viewBox="0 0 1909.03 1476.56">
  <defs>
    <style>
      .uuid-2be455c2-8edc-4988-aa05-ed88a96b48fc {
        fill: #b15912;
      }
    </style>
  </defs>
  <path class="uuid-2be455c2-8edc-4988-aa05-ed88a96b48fc" d="M1231.14,1354.74c-52.26-59.28-72.63-109.57-80-144.63h-393.26c-7.37,35.06-27.74,85.36-79.99,144.63h553.25Z"/>
  <path class="uuid-2be455c2-8edc-4988-aa05-ed88a96b48fc" d="M1848.32,0H60.71C27.24,0,0,27.24,0,60.71v1057.1c0,16.1,6.35,30.73,16.62,41.6,11.08,12.49,26.72,20.34,44.09,20.34h1787.61c17.37,0,33.02-7.85,44.09-20.34,10.27-10.87,16.62-25.5,16.62-41.6V60.71c0-33.47-27.24-60.71-60.71-60.71ZM60.71,60.71h1787.61v861.3s0,0,0,0H60.71V60.71ZM899.32,1051.37c0-30.43,24.76-55.19,55.19-55.19s55.19,24.76,55.19,55.19-24.76,55.19-55.19,55.19-55.19-24.76-55.19-55.19Z"/>
  <path class="uuid-2be455c2-8edc-4988-aa05-ed88a96b48fc" d="M1425.03,1385.85H484c-25.11,0-45.53,12.88-45.53,28.71v33.29c0,15.83,20.43,28.71,45.53,28.71h941.02c25.11,0,45.53-12.88,45.53-28.71v-33.29c0-15.83-20.43-28.71-45.53-28.71Z"/>
</svg>